<?xml version="1.0" standalone="no"?>
<!DOCTYPE svg PUBLIC "-//W3C//DTD SVG 20010904//EN"
 "http://www.w3.org/TR/2001/REC-SVG-20010904/DTD/svg10.dtd">
<svg version="1.0" xmlns="http://www.w3.org/2000/svg"
 width="4000.000000pt" height="4000.000000pt" viewBox="0 0 4000.000000 4000.000000"
 preserveAspectRatio="xMidYMid meet">

<g transform="translate(0.000000,4000.000000) scale(0.100000,-0.100000)"
fill="#000000" stroke="none">
<path d="M23508 31221 c-37 -10 -79 -26 -92 -34 -13 -9 -116 -39 -230 -67
-113 -28 -261 -68 -328 -89 -68 -22 -199 -58 -293 -81 -259 -63 -453 -121
-785 -231 -348 -115 -516 -181 -845 -330 -72 -32 -134 -59 -138 -59 -22 0
-1115 -536 -1392 -683 -293 -155 -545 -281 -690 -346 -142 -64 -183 -81 -380
-166 -292 -125 -896 -418 -1370 -665 -77 -40 -457 -232 -845 -427 -388 -194
-754 -379 -815 -411 -255 -135 -401 -210 -575 -298 -215 -108 -673 -332 -776
-379 l-72 -33 4 61 c2 34 6 100 9 147 4 47 10 591 15 1210 9 1266 8 1248 84
1548 61 240 15 443 -134 592 -105 105 -238 160 -389 160 -162 0 -292 -52 -401
-161 -87 -87 -131 -176 -174 -349 -89 -360 -87 -317 -96 -1590 -6 -771 -13
-1200 -23 -1390 -9 -151 -21 -393 -28 -537 l-13 -263 -120 -59 c-204 -100
-497 -241 -502 -241 -2 0 -88 -41 -191 -91 -104 -50 -253 -123 -333 -161 -80
-39 -265 -130 -411 -203 -288 -144 -392 -191 -598 -270 -277 -107 -313 -116
-491 -126 -246 -14 -353 -33 -580 -104 -135 -42 -204 -81 -279 -156 -217 -216
-217 -573 -1 -789 110 -110 237 -160 405 -160 86 0 121 6 241 39 155 43 189
48 419 61 135 7 180 14 285 44 133 37 270 83 422 141 202 78 312 128 768 353
541 267 851 414 856 409 7 -6 -23 -270 -106 -957 -121 -1000 -163 -1291 -470
-3270 -114 -736 -143 -908 -225 -1335 -56 -292 -181 -877 -250 -1170 -8 -33
-37 -161 -65 -285 -92 -406 -210 -905 -296 -1245 -70 -276 -110 -430 -176
-670 -33 -121 -63 -229 -65 -240 -6 -20 -51 -181 -188 -660 -42 -148 -108
-378 -145 -510 -249 -871 -396 -1352 -495 -1610 -14 -38 -30 -81 -35 -95 -4
-14 -24 -68 -45 -120 -20 -52 -54 -142 -76 -200 -22 -58 -46 -121 -54 -140
-26 -68 -93 -246 -115 -305 -12 -33 -36 -96 -52 -140 -16 -44 -49 -134 -73
-200 -24 -66 -56 -151 -70 -190 -15 -38 -31 -81 -35 -95 -41 -122 -237 -618
-357 -904 -47 -111 -93 -221 -103 -246 -10 -25 -46 -108 -80 -185 -34 -77 -81
-185 -105 -240 -182 -421 -445 -942 -535 -1060 -49 -64 -171 -180 -281 -268
-179 -143 -249 -277 -249 -478 0 -433 467 -691 850 -470 214 123 505 410 663
652 133 203 429 803 652 1319 37 85 82 189 100 230 36 80 140 328 199 473 95
231 135 332 226 572 60 158 66 173 90 240 12 33 28 76 35 95 7 19 22 60 33 90
60 164 161 439 177 480 8 19 25 67 40 105 14 39 32 86 40 105 7 19 32 85 55
145 23 61 48 126 55 145 8 19 25 67 40 105 14 39 32 86 40 105 33 82 163 469
223 660 16 52 82 277 147 500 112 388 155 537 335 1170 45 157 99 346 120 420
308 1071 782 3082 969 4108 12 61 30 160 41 220 27 144 112 683 210 1322 5 30
47 303 94 605 102 658 141 921 200 1365 107 797 219 1754 266 2265 11 127 24
263 28 304 l7 75 215 107 c118 59 350 174 515 255 691 338 803 394 1065 532
151 80 617 317 1035 527 418 210 850 428 960 485 345 177 764 384 910 449 77
35 179 81 227 102 47 21 89 39 93 39 4 0 46 17 93 39 48 21 150 67 227 101
141 63 460 222 655 326 129 69 996 504 1004 504 3 0 98 45 211 100 114 55 210
100 214 100 5 0 57 23 117 51 59 28 124 56 143 64 20 7 97 39 171 70 164 69
271 109 500 185 330 109 405 131 661 196 141 35 306 80 365 99 158 51 427 115
482 115 114 0 276 74 372 170 182 182 225 501 99 725 -67 119 -193 218 -329
256 -84 25 -221 24 -312 0z"/>
<path d="M24600 24431 c-182 -50 -339 -209 -384 -392 -24 -99 -20 -237 14
-459 69 -454 80 -735 80 -2194 0 -1045 0 -1061 21 -1135 48 -172 157 -311 310
-394 259 -140 534 -112 719 73 174 174 213 456 91 671 l-31 56 0 984 c0 1035
-10 1519 -35 1784 -18 191 -70 536 -92 620 -49 182 -199 334 -383 386 -84 24
-221 24 -310 0z"/>
<path d="M19560 23661 c-182 -50 -339 -209 -384 -392 -22 -90 -21 -227 3 -310
10 -37 37 -105 59 -152 22 -47 43 -98 46 -114 25 -117 29 -288 35 -1348 l7
-1130 33 -110 c37 -126 95 -235 185 -345 183 -225 332 -310 541 -310 316 0
555 239 555 555 0 153 -45 268 -154 392 l-55 63 -4 1112 c-5 1177 -6 1214 -54
1408 -33 137 -57 200 -134 350 -97 188 -204 284 -369 331 -84 24 -221 24 -310
0z"/>
<path d="M16270 13471 c-348 -95 -509 -508 -322 -828 23 -38 62 -92 89 -119
116 -120 618 -559 835 -730 228 -180 239 -188 393 -290 183 -122 321 -205 525
-316 222 -120 266 -142 545 -271 315 -145 379 -170 725 -287 138 -46 263 -90
450 -160 438 -163 923 -285 1547 -390 680 -113 1000 -155 1498 -195 568 -45
1652 -114 1965 -125 204 -8 1251 -10 3165 -8 l2860 3 120 22 c227 42 413 94
585 163 117 47 232 80 278 80 160 0 354 121 441 275 96 170 96 390 0 560 -69
122 -201 223 -340 260 -101 26 -340 17 -469 -18 -135 -37 -341 -106 -382 -128
-40 -21 -187 -60 -308 -82 l-125 -22 -2835 0 c-2971 0 -2867 -1 -3540 45 -157
11 -424 29 -595 40 -950 62 -1336 107 -2185 251 -529 90 -890 181 -1260 319
-191 70 -312 114 -450 160 -355 120 -405 139 -704 277 -550 254 -887 460
-1261 769 -190 158 -256 215 -388 333 -398 358 -423 377 -547 412 -84 24 -221
24 -310 0z"/>
</g>
</svg>
